<svg xmlns="http://www.w3.org/2000/svg" width="251" height="247" fill="none" viewBox="0 0 251 247"><path fill="#1C1B18" d="M107.466 225.307C167.55 244.822 228.712 206.788 246.852 150.951C251.791 135.839 250.902 129.625 250.902 129.625H250.573C250.219 132.917 249.256 138.868 246.095 148.556C230.613 196.187 172.999 241.974 108.692 221.043C75.4567 210.245 58.7155 183.906 55.0775 172.104L55.2174 171.923C79.5885 214.039 125.491 231.488 170.9 216.73C230.984 197.215 258.145 130.489 239.963 74.6441C235.025 59.5326 230.704 55.0139 230.704 55.0139L230.416 55.1785C232.062 58.0346 234.778 63.4092 237.939 73.1543C253.421 120.794 233.7 191.676 169.361 212.582C136.125 223.381 107.104 211.915 97.2186 204.508V204.277C141.664 224.031 189.073 211.158 217.14 172.532C254.26 121.436 237 51.5406 189.501 16.9717C176.628 7.6463 170.422 6.57631 170.422 6.57631L170.282 6.8726C173.295 8.22244 178.669 10.988 186.933 16.9964C227.461 46.4375 253.174 115.378 213.411 170.087C192.834 198.36 162.653 206.146 150.307 205.956L150.175 205.759C197.756 195.602 228.539 157.338 228.539 109.592C228.539 46.4375 173.459 0 114.75 0C98.8565 0 93.2185 2.74905 93.2185 2.74905L93.2843 3.07003C96.5108 2.38688 102.478 1.42389 112.701 1.42389C162.792 1.42389 224.111 42.0835 224.111 109.732C224.111 144.679 204.242 168.737 194.143 175.849L193.929 175.766C226.449 139.551 228.86 90.5293 200.794 51.9027C163.673 0.806604 91.8193 -4.38698 44.32 30.1243C31.4637 39.4661 28.5171 44.9972 28.5171 44.9972L28.7558 45.2194C30.9698 42.7502 35.258 38.5196 43.5216 32.5112C84.0495 3.07005 157.558 -0.0823119 197.32 54.6518C217.897 82.9159 215.93 114.061 211.938 125.748L211.716 125.814C216.753 77.4261 189.871 36.322 144.463 21.5644C84.3787 2.04943 23.2165 40.0834 5.07607 95.9204C0.137654 111.032 1.02658 117.246 1.02658 117.246H1.3558C1.70972 113.954 2.67272 108.003 5.8333 98.3155C21.3152 50.6763 78.93 4.92195 143.286 25.8197C176.521 36.6183 193.262 62.9565 196.9 74.7593L196.761 74.9404C172.389 32.824 126.487 15.3749 81.0782 30.1325C20.9942 49.6475 -6.16703 116.374 12.0146 172.219C16.953 187.33 21.2741 191.849 21.2741 191.849L21.5622 191.684C19.916 188.828 17.1999 183.454 14.0393 173.709C-1.44263 126.069 18.2781 55.1867 82.6174 34.2808C115.853 23.4821 144.874 34.9475 154.759 42.3551V42.5856C110.314 22.8319 62.9049 35.7047 34.8382 74.3313C-2.28216 125.427 14.9776 195.322 62.4769 229.891C75.325 239.258 81.5309 240.328 81.5309 240.328L81.6709 240.032C78.6584 238.682 73.2838 235.916 65.0202 229.908C24.4923 200.467 -1.22041 131.526 38.542 76.817C59.1188 48.5446 89.3007 40.7584 101.647 40.9477L101.778 41.137C54.1968 51.3019 23.4141 89.5663 23.4141 137.313C23.4141 200.467 78.4938 246.904 137.203 246.904C153.097 246.904 158.735 244.155 158.735 244.155L158.669 243.834C155.442 244.517 149.475 245.48 139.253 245.48C89.1608 245.48 27.8421 204.821 27.8421 137.173C27.8421 102.225 47.711 78.1668 57.8101 71.0555L58.0241 71.1378C25.48 107.295 23.0931 156.375 51.135 194.969C88.2554 246.065 160.109 251.258 207.609 216.747C220.465 207.405 223.412 201.874 223.412 201.874L223.173 201.652C220.959 204.121 216.671 208.352 208.407 214.36C167.879 243.801 94.3708 246.954 54.6084 192.219C34.0316 163.955 35.9988 132.81 39.9906 121.123L40.2129 121.057C35.1757 169.445 62.0571 210.549 107.466 225.307ZM127.458 76.5371C137.491 76.5371 143.138 78.1833 143.138 78.1833L159.813 112.234L159.665 112.382L138.199 99.5831C125.763 92.1755 116.725 88.2823 109.392 88.5786C101.622 88.7268 96.9635 94.9739 96.9635 104.044C97.2433 127.246 119.285 155.79 141.179 155.79C150.117 155.79 154.768 152.918 157.492 149.436L125.071 113.863V113.715H169.599C170.207 116.901 170.538 120.135 170.587 123.378C170.587 149.403 150.669 170.367 126.092 170.367C101.4 170.367 81.4486 149.403 81.4486 123.378C81.4075 97.5007 101.326 76.5371 127.458 76.5371Z"/></svg>