<svg xmlns="http://www.w3.org/2000/svg" width="250" height="247" fill="none" viewBox="0 0 250 247"><path fill="#F1F252" d="M106.502 225.307C166.586 244.822 227.748 206.788 245.888 150.951C250.827 135.839 249.938 129.625 249.938 129.625H249.608C249.255 132.917 248.291 138.868 245.131 148.556C229.649 196.195 172.034 241.949 107.678 221.051C74.443 210.253 57.7019 183.915 54.0639 172.112L54.2038 171.931C78.5748 214.047 124.477 231.496 169.886 216.739C229.97 197.224 257.131 130.498 238.95 74.6523C234.011 59.5408 229.69 55.0221 229.69 55.0221L229.402 55.1867C231.048 58.0428 233.764 63.4174 236.925 73.1626C252.407 120.802 232.686 191.684 168.347 212.59C135.111 223.389 106.09 211.924 96.205 204.516V204.286C140.651 224.039 188.059 211.166 216.126 172.54C253.246 121.444 235.987 51.5488 188.487 16.9799C175.664 7.64631 169.458 6.57631 169.458 6.57631L169.326 6.8726C172.331 8.22243 177.705 10.9879 185.969 16.9963C226.497 46.4375 252.209 115.378 212.447 170.087C191.87 198.359 161.688 206.146 149.342 205.956L149.211 205.767C196.792 195.602 227.575 157.338 227.575 109.592C227.575 46.4375 172.495 0 113.786 0C97.8922 0 92.2542 2.74902 92.2542 2.74902L92.3201 3.07003C95.5465 2.38688 101.514 1.42389 111.736 1.42389C161.828 1.42389 223.147 42.0835 223.147 109.731C223.147 144.679 203.278 168.737 193.179 175.849L192.965 175.766C225.484 139.551 227.896 90.5293 199.829 51.9027C162.709 0.806604 90.855 -4.38698 43.3558 30.1243C30.4994 39.4661 27.5528 44.9971 27.5528 44.9971L27.7915 45.2194C30.0056 42.7502 34.2937 38.5196 42.5573 32.5112C83.0852 3.07005 156.594 -0.082337 196.356 54.6517C216.933 82.9159 214.965 114.061 210.974 125.748L210.751 125.814C215.789 77.426 188.907 36.322 143.498 21.5644C83.4144 2.04945 22.2522 40.0834 4.11181 95.9204C-0.826599 111.032 0.0622792 117.246 0.0622792 117.246H0.391527C0.745446 113.954 1.70849 108.003 4.86907 98.3155C20.351 50.6763 77.9658 4.92195 142.322 25.8197C175.557 36.6183 192.298 62.9565 195.936 74.7593L195.796 74.9404C171.425 32.824 125.523 15.3749 80.1139 30.1325C20.0299 49.6475 -7.13126 116.374 11.0503 172.219C15.9887 187.33 20.3098 191.849 20.3098 191.849L20.5979 191.684C18.9518 188.828 16.2356 183.454 13.075 173.709C-2.40688 126.069 17.3138 55.1867 81.6531 34.2808C114.889 23.4821 143.91 34.9475 153.795 42.3551V42.5856C109.349 22.8319 61.9406 35.7047 33.874 74.3313C-3.24639 125.427 14.0133 195.364 61.5126 229.891C74.3607 239.258 80.5667 240.328 80.5667 240.328L80.6984 240.031C77.6942 238.682 72.3195 235.916 64.0559 229.908C23.528 200.467 -2.18463 131.526 37.5778 76.817C58.1545 48.5446 88.3364 40.7584 100.682 40.9477L100.814 41.1369C53.2325 51.3018 22.4498 89.5663 22.4498 137.313C22.4498 200.467 77.5295 246.904 136.239 246.904C152.132 246.904 157.771 244.155 157.771 244.155L157.705 243.834C154.478 244.517 148.511 245.48 138.288 245.48C88.1965 245.48 26.8779 204.821 26.8779 137.173C26.8779 102.225 46.7468 78.1668 56.8459 71.0555L57.0598 71.1378C24.5403 107.353 22.1288 156.375 50.1954 195.001C87.3158 246.097 159.17 251.291 206.669 216.78C219.525 207.438 222.472 201.907 222.472 201.907L222.233 201.685C220.019 204.154 215.731 208.384 207.467 214.393C166.94 243.834 93.4312 246.986 53.6687 192.252C33.092 163.988 35.0592 132.843 39.0511 121.156L39.2733 121.09C34.2114 169.445 61.0929 210.549 106.502 225.307ZM126.658 72.0103C137.688 72.0103 143.894 73.8045 143.894 73.8045L162.207 111.106L162.05 111.271L138.445 97.2785C124.782 89.1219 114.839 84.883 106.765 85.2123C98.2297 85.3686 93.102 92.2166 93.102 102.167C93.4147 127.6 117.638 158.91 141.663 158.91C151.49 158.91 156.602 155.749 159.598 151.93L123.959 112.925V112.76H172.874C173.544 116.256 173.907 119.803 173.96 123.362C173.96 151.897 152.067 174.886 125.045 174.886C97.8841 174.886 75.9822 151.897 75.9822 123.362C76.0234 94.9986 97.9169 72.0103 126.658 72.0103Z"/></svg>